<svg id="e0mFN5ygY1E1" xmlns="http://www.w3.org/2000/svg" xmlns:xlink="http://www.w3.org/1999/xlink" viewBox="0 0 48 48" shape-rendering="geometricPrecision" text-rendering="geometricPrecision"><g><rect width="8" height="8" rx="0" ry="0" transform="translate(0 40)" fill="#9f6c3a" stroke-width="0"/><rect width="8" height="8" rx="0" ry="0" transform="translate(8 40)" fill="#9f6c3a" stroke-width="0"/><rect width="8" height="8" rx="0" ry="0" transform="translate(16 40)" fill="#9f6c3a" stroke-width="0"/><rect width="8" height="8" rx="0" ry="0" transform="translate(24 40)" fill="#9f6c3a" stroke-width="0"/><rect width="8" height="8" rx="0" ry="0" transform="translate(32 40)" fill="#9f6c3a" stroke-width="0"/><rect width="8" height="8" rx="0" ry="0" transform="translate(40 40)" fill="#9f6c3a" stroke-width="0"/><rect width="8" height="8" rx="0" ry="0" transform="translate(12 32)" fill="#9f6c3a" stroke-width="0"/><rect width="8" height="8" rx="0" ry="0" transform="translate(8 24)" fill="#9f6c3a" stroke-width="0"/><rect width="8" height="8" rx="0" ry="0" transform="translate(32 24)" fill="#9f6c3a" stroke-width="0"/><rect width="8" height="8" rx="0" ry="0" transform="translate(12 16)" fill="#9f6c3a" stroke-width="0"/><rect width="8" height="8" rx="0" ry="0" transform="translate(20 16)" fill="#9f6c3a" stroke-width="0"/><rect width="8" height="8" rx="0" ry="0" transform="translate(28 16)" fill="#9f6c3a" stroke-width="0"/><rect width="8" height="8" rx="0" ry="0" transform="translate(24 24)" fill="#9f6c3a" stroke-width="0"/><rect width="8" height="8" rx="0" ry="0" transform="translate(20 32)" fill="#9f6c3a" stroke-width="0"/><rect width="8" height="8" rx="0" ry="0" transform="translate(28 32)" fill="#9f6c3a" stroke-width="0"/><rect width="8" height="8" rx="0" ry="0" transform="translate(36 32)" fill="#9f6c3a" stroke-width="0"/><rect width="8" height="8" rx="0" ry="0" transform="translate(16 24)" fill="#9f6c3a" stroke-width="0"/><rect width="8" height="8" rx="0" ry="0" transform="translate(4 32)" fill="#9f6c3a" stroke-width="0"/><rect width="8" height="8" rx="0" ry="0" transform="translate(20 8)" fill="#9f6c3a" stroke-width="0"/><rect width="8" height="8" rx="0" ry="0" transform="translate(20 40)" stroke-width="0"/></g></svg>
