<svg id="eiY34EdIUxq1" xmlns="http://www.w3.org/2000/svg" xmlns:xlink="http://www.w3.org/1999/xlink" viewBox="0 0 48 48" shape-rendering="geometricPrecision" text-rendering="geometricPrecision"><defs><filter id="eiY34EdIUxq5-filter" x="-150%" width="400%" y="-150%" height="400%"><feColorMatrix id="eiY34EdIUxq5-filter-hue-rotate-0" type="hueRotate" values="228" result="result"/><feColorMatrix id="eiY34EdIUxq5-filter-saturate-0" type="saturate" values="1.34" result="result"/></filter></defs><g><g><g transform="translate(-.000003 0)"><g transform="translate(.000001 4.158946)" filter="url(#eiY34EdIUxq5-filter)"><rect width="8" height="8" rx="0" ry="0" transform="matrix(1.039736 0 0 1.039736 19.841055 19.841056)" fill="#fff"/><rect width="8" height="8" rx="0" ry="0" transform="matrix(1.039736 0 0 1.039736 19.841056 28.158944)" fill="#fff" stroke-width="0"/><rect width="8" height="8" rx="0" ry="0" transform="matrix(1.039736 0 0 1.039736 19.841056 11.523168)" fill="#fff" stroke-width="0"/><rect width="8" height="8" rx="0" ry="0" transform="matrix(1.039736 0 0 1.039736 19.841056 3.20528)" fill="#fff"/><rect width="8" height="8" rx="0" ry="0" transform="matrix(1.039736 0 0 1.039736 11.523168 11.523168)" fill="#fff"/><rect width="8" height="8" rx="0" ry="0" transform="matrix(1.039736 0 0 1.039736 28.158944 11.523168)" fill="#fff"/></g><path d="" fill="none" stroke="#3f5787" stroke-width="0.5"/><g><line x1="-4.158944" y1="0" x2="4.158944" y2="0" transform="translate(24.000001 7)" fill="none" stroke="#000" stroke-linecap="square" stroke-linejoin="bevel"/><line x1="-0.000001" y1="-4.341057" x2="0" y2="4.341057" transform="translate(19.841057 11.341057)" fill="none" stroke="#000" stroke-linecap="square" stroke-linejoin="bevel"/><line x1="4.158944" y1="0" x2="-4.158944" y2="0" transform="translate(15.682113 15.682114)" fill="none" stroke="#000" stroke-linecap="square" stroke-linejoin="bevel"/><line x1="0" y1="-4.158943" x2="0" y2="4.158943" transform="translate(11.523169 19.841057)" fill="none" stroke="#000" stroke-linecap="square" stroke-linejoin="bevel"/><line x1="-4.158943" y1="0" x2="4.158943" y2="0" transform="translate(15.682112 24)" fill="none" stroke="#000" stroke-linecap="square" stroke-linejoin="bevel"/><line x1="-0.000001" y1="-8.317889" x2="0.000001" y2="8.317889" transform="translate(19.841056 32.317889)" fill="none" stroke="#000" stroke-linecap="square" stroke-linejoin="bevel"/><line x1="-4.158943" y1="0" x2="4.158944" y2="0" transform="translate(24.000001 40.635778)" fill="none" stroke="#000" stroke-linecap="square" stroke-linejoin="bevel"/><line x1="0" y1="8.317889" x2="0" y2="-8.317889" transform="translate(28.158945 32.317889)" fill="none" stroke="#000" stroke-linecap="square" stroke-linejoin="bevel"/><line x1="-4.158945" y1="-0.000001" x2="4.158944" y2="0.000001" transform="translate(32.317889 24.000001)" fill="none" stroke="#000" stroke-linecap="square" stroke-linejoin="bevel"/><line x1="0" y1="4.158944" x2="0" y2="-4.158944" transform="translate(36.476833 19.841058)" fill="none" stroke="#000" stroke-linecap="square" stroke-linejoin="bevel"/><line x1="4.158944" y1="0" x2="-4.158944" y2="0" transform="translate(32.317889 15.682114)" fill="none" stroke="#000" stroke-linecap="square" stroke-linejoin="bevel"/><line x1="0" y1="4.341057" x2="0" y2="-4.341057" transform="translate(28.158945 11.341057)" fill="none" stroke="#000" stroke-linecap="square" stroke-linejoin="bevel"/></g></g></g></g></svg>
